<!DOCTYPE svg PUBLIC "-//W3C//DTD SVG 1.1//EN" "http://www.w3.org/Graphics/SVG/1.1/DTD/svg11.dtd">
<svg xmlns="http://www.w3.org/2000/svg" xmlns:xlink="http://www.w3.org/1999/xlink" xmlns:jfreesvg="http://www.jfree.org/jfreesvg/svg" width="600" height="400" text-rendering="auto" shape-rendering="auto">
<defs><linearGradient id="2716456718800gp9" x1="351" y1="0" x2="360" y2="0" gradientUnits="userSpaceOnUse"><stop offset="0%" style="stop-color: rgb(255,255,255);"/><stop offset="100%" style="stop-color: rgb(255,85,85);"/></linearGradient>
<linearGradient id="2716456718800gp14" x1="488" y1="0" x2="543" y2="0" gradientUnits="userSpaceOnUse"><stop offset="0%" style="stop-color: rgb(255,85,85);"/><stop offset="100%" style="stop-color: rgb(255,121,121);"/></linearGradient>
<linearGradient id="2716456718800gp15" x1="543" y1="0" x2="561.6" y2="0" gradientUnits="userSpaceOnUse"><stop offset="0%" style="stop-color: rgb(255,121,121);"/><stop offset="100%" style="stop-color: rgb(255,85,85);"/></linearGradient>
<linearGradient id="2716456718800gp11" x1="416" y1="0" x2="434" y2="0" gradientUnits="userSpaceOnUse"><stop offset="0%" style="stop-color: rgb(255,121,121);"/><stop offset="100%" style="stop-color: rgb(255,85,85);"/></linearGradient>
<linearGradient id="2716456718800gp12" x1="469.2" y1="0" x2="478" y2="0" gradientUnits="userSpaceOnUse"><stop offset="0%" style="stop-color: rgb(255,85,85);"/><stop offset="100%" style="stop-color: rgb(255,255,255);"/></linearGradient>
<linearGradient id="2716456718800gp10" x1="360" y1="0" x2="416" y2="0" gradientUnits="userSpaceOnUse"><stop offset="0%" style="stop-color: rgb(255,85,85);"/><stop offset="100%" style="stop-color: rgb(255,121,121);"/></linearGradient>
<linearGradient id="2716456718800gp3" x1="160" y1="0" x2="178.8" y2="0" gradientUnits="userSpaceOnUse"><stop offset="0%" style="stop-color: rgb(255,121,121);"/><stop offset="100%" style="stop-color: rgb(255,85,85);"/></linearGradient>
<linearGradient id="2716456718800gp5" x1="223" y1="0" x2="232" y2="0" gradientUnits="userSpaceOnUse"><stop offset="0%" style="stop-color: rgb(255,255,255);"/><stop offset="100%" style="stop-color: rgb(255,85,85);"/></linearGradient>
<linearGradient id="2716456718800gp0" x1="86.4" y1="0" x2="96" y2="0" gradientUnits="userSpaceOnUse"><stop offset="0%" style="stop-color: rgb(255,85,85);"/><stop offset="100%" style="stop-color: rgb(255,255,255);"/></linearGradient>
<linearGradient id="2716456718800gp6" x1="232" y1="0" x2="288" y2="0" gradientUnits="userSpaceOnUse"><stop offset="0%" style="stop-color: rgb(255,85,85);"/><stop offset="100%" style="stop-color: rgb(255,121,121);"/></linearGradient>
<linearGradient id="2716456718800gp7" x1="288" y1="0" x2="306.4" y2="0" gradientUnits="userSpaceOnUse"><stop offset="0%" style="stop-color: rgb(255,121,121);"/><stop offset="100%" style="stop-color: rgb(255,85,85);"/></linearGradient>
<linearGradient id="2716456718800gp4" x1="214" y1="0" x2="223" y2="0" gradientUnits="userSpaceOnUse"><stop offset="0%" style="stop-color: rgb(255,85,85);"/><stop offset="100%" style="stop-color: rgb(255,255,255);"/></linearGradient>
<linearGradient id="2716456718800gp1" x1="96" y1="0" x2="105" y2="0" gradientUnits="userSpaceOnUse"><stop offset="0%" style="stop-color: rgb(255,255,255);"/><stop offset="100%" style="stop-color: rgb(255,85,85);"/></linearGradient>
<linearGradient id="2716456718800gp13" x1="478" y1="0" x2="488" y2="0" gradientUnits="userSpaceOnUse"><stop offset="0%" style="stop-color: rgb(255,255,255);"/><stop offset="100%" style="stop-color: rgb(255,85,85);"/></linearGradient>
<linearGradient id="2716456718800gp8" x1="341.6" y1="0" x2="351" y2="0" gradientUnits="userSpaceOnUse"><stop offset="0%" style="stop-color: rgb(255,85,85);"/><stop offset="100%" style="stop-color: rgb(255,255,255);"/></linearGradient>
<linearGradient id="2716456718800gp2" x1="105" y1="0" x2="160" y2="0" gradientUnits="userSpaceOnUse"><stop offset="0%" style="stop-color: rgb(255,85,85);"/><stop offset="100%" style="stop-color: rgb(255,121,121);"/></linearGradient>
<clipPath id="2716456718800clip-0"><path d="M 0 0 L 600 0 L 600 400 L 0 400 L 0 0 M 0 0"/></clipPath>
<clipPath id="2716456718800clip-1"><path d="M 210.32 170.68 L 210.32 770.68 L -189.68 770.68 L -189.68 170.68 L 210.32 170.68 M 210.32 170.68"/></clipPath>
<clipPath id="2716456718800clip-2"><path d="M 60 35 L 60 346 L 588 346 L 588 35 M 60 35"/></clipPath>
</defs>
<rect x="0" y="0" width="600" height="400" style="fill: rgb(255,255,255); fill-opacity: 1.0" transform="matrix(1,0,0,1,0,0)" clip-path="url(#2716456718800clip-0)"/><g transform="matrix(1,0,0,1,0,0)"><text x="208.76" y="21.01" style="fill: rgb(0,0,0); fill-opacity: 1.0; font-family: Tahoma; font-size: 20px; font-weight: bold; " clip-path="url(#2716456718800clip-0)">Users connections</text></g><rect x="60" y="35" width="528" height="311" style="fill: rgb(192,192,192); fill-opacity: 1.0" transform="matrix(1,0,0,1,0,0)" clip-path="url(#2716456718800clip-0)"/><line x1="60" y1="350" x2="588" y2="350" style="stroke-width: 0.5;stroke: rgb(128,128,128);stroke-opacity: 1.0;shape-rendering:crispEdges;" transform="matrix(1,0,0,1,0,0)" clip-path="url(#2716456718800clip-0)"/><line x1="132.6" y1="350" x2="132.6" y2="350" style="stroke-width: 0.5;stroke: rgb(128,128,128);stroke-opacity: 1.0;shape-rendering:crispEdges;" transform="matrix(1,0,0,1,0,0)" clip-path="url(#2716456718800clip-0)"/><line x1="132.6" y1="350" x2="132.6" y2="352" style="stroke-width: 0.5;stroke: rgb(128,128,128);stroke-opacity: 1.0;shape-rendering:crispEdges;" transform="matrix(1,0,0,1,0,0)" clip-path="url(#2716456718800clip-0)"/><line x1="260.2" y1="350" x2="260.2" y2="350" style="stroke-width: 0.5;stroke: rgb(128,128,128);stroke-opacity: 1.0;shape-rendering:crispEdges;" transform="matrix(1,0,0,1,0,0)" clip-path="url(#2716456718800clip-0)"/><line x1="260.2" y1="350" x2="260.2" y2="352" style="stroke-width: 0.5;stroke: rgb(128,128,128);stroke-opacity: 1.0;shape-rendering:crispEdges;" transform="matrix(1,0,0,1,0,0)" clip-path="url(#2716456718800clip-0)"/><line x1="387.8" y1="350" x2="387.8" y2="350" style="stroke-width: 0.5;stroke: rgb(128,128,128);stroke-opacity: 1.0;shape-rendering:crispEdges;" transform="matrix(1,0,0,1,0,0)" clip-path="url(#2716456718800clip-0)"/><line x1="387.8" y1="350" x2="387.8" y2="352" style="stroke-width: 0.5;stroke: rgb(128,128,128);stroke-opacity: 1.0;shape-rendering:crispEdges;" transform="matrix(1,0,0,1,0,0)" clip-path="url(#2716456718800clip-0)"/><line x1="515.4" y1="350" x2="515.4" y2="350" style="stroke-width: 0.5;stroke: rgb(128,128,128);stroke-opacity: 1.0;shape-rendering:crispEdges;" transform="matrix(1,0,0,1,0,0)" clip-path="url(#2716456718800clip-0)"/><line x1="515.4" y1="350" x2="515.4" y2="352" style="stroke-width: 0.5;stroke: rgb(128,128,128);stroke-opacity: 1.0;shape-rendering:crispEdges;" transform="matrix(1,0,0,1,0,0)" clip-path="url(#2716456718800clip-0)"/><g transform="matrix(1,0,0,1,0,0)"><text x="120.66" y="368.01" style="fill: rgb(64,64,64); fill-opacity: 1.0; font-family: Tahoma; font-size: 12px; " clip-path="url(#2716456718800clip-0)">Dani</text></g><g transform="matrix(1,0,0,1,0,0)"><text x="248.36" y="368.01" style="fill: rgb(64,64,64); fill-opacity: 1.0; font-family: Tahoma; font-size: 12px; " clip-path="url(#2716456718800clip-0)">Gabi</text></g><g transform="matrix(1,0,0,1,0,0)"><text x="373.34" y="368.01" style="fill: rgb(64,64,64); fill-opacity: 1.0; font-family: Tahoma; font-size: 12px; " clip-path="url(#2716456718800clip-0)">Maria</text></g><g transform="matrix(1,0,0,1,0,0)"><text x="501.54" y="368.01" style="fill: rgb(64,64,64); fill-opacity: 1.0; font-family: Tahoma; font-size: 12px; " clip-path="url(#2716456718800clip-0)">Mihai</text></g><g transform="matrix(1,0,0,1,0,0)"><text x="304.43" y="391.49" style="fill: rgb(64,64,64); fill-opacity: 1.0; font-family: Tahoma; font-size: 14px; font-weight: bold; " clip-path="url(#2716456718800clip-0)">Users</text></g><line x1="56" y1="35" x2="56" y2="346" style="stroke-width: 0.5;stroke: rgb(128,128,128);stroke-opacity: 1.0;shape-rendering:crispEdges;" transform="matrix(1,0,0,1,0,0)" clip-path="url(#2716456718800clip-0)"/><g transform="matrix(1,0,0,1,0,0)"><text x="33.27" y="350.76" style="fill: rgb(64,64,64); fill-opacity: 1.0; font-family: Tahoma; font-size: 12px; " clip-path="url(#2716456718800clip-0)">0.0</text></g><line x1="54" y1="346" x2="56" y2="346" style="stroke-width: 0.5;stroke: rgb(128,128,128);stroke-opacity: 1.0;shape-rendering:crispEdges;" transform="matrix(1,0,0,1,0,0)" clip-path="url(#2716456718800clip-0)"/><g transform="matrix(1,0,0,1,0,0)"><text x="33.27" y="329.61" style="fill: rgb(64,64,64); fill-opacity: 1.0; font-family: Tahoma; font-size: 12px; " clip-path="url(#2716456718800clip-0)">0.5</text></g><line x1="54" y1="324.84" x2="56" y2="324.84" style="stroke-width: 0.5;stroke: rgb(128,128,128);stroke-opacity: 1.0;shape-rendering:crispEdges;" transform="matrix(1,0,0,1,0,0)" clip-path="url(#2716456718800clip-0)"/><g transform="matrix(1,0,0,1,0,0)"><text x="33.27" y="308.45" style="fill: rgb(64,64,64); fill-opacity: 1.0; font-family: Tahoma; font-size: 12px; " clip-path="url(#2716456718800clip-0)">1.0</text></g><line x1="54" y1="303.69" x2="56" y2="303.69" style="stroke-width: 0.5;stroke: rgb(128,128,128);stroke-opacity: 1.0;shape-rendering:crispEdges;" transform="matrix(1,0,0,1,0,0)" clip-path="url(#2716456718800clip-0)"/><g transform="matrix(1,0,0,1,0,0)"><text x="33.27" y="287.29" style="fill: rgb(64,64,64); fill-opacity: 1.0; font-family: Tahoma; font-size: 12px; " clip-path="url(#2716456718800clip-0)">1.5</text></g><line x1="54" y1="282.53" x2="56" y2="282.53" style="stroke-width: 0.5;stroke: rgb(128,128,128);stroke-opacity: 1.0;shape-rendering:crispEdges;" transform="matrix(1,0,0,1,0,0)" clip-path="url(#2716456718800clip-0)"/><g transform="matrix(1,0,0,1,0,0)"><text x="33.27" y="266.14" style="fill: rgb(64,64,64); fill-opacity: 1.0; font-family: Tahoma; font-size: 12px; " clip-path="url(#2716456718800clip-0)">2.0</text></g><line x1="54" y1="261.37" x2="56" y2="261.37" style="stroke-width: 0.5;stroke: rgb(128,128,128);stroke-opacity: 1.0;shape-rendering:crispEdges;" transform="matrix(1,0,0,1,0,0)" clip-path="url(#2716456718800clip-0)"/><g transform="matrix(1,0,0,1,0,0)"><text x="33.27" y="244.98" style="fill: rgb(64,64,64); fill-opacity: 1.0; font-family: Tahoma; font-size: 12px; " clip-path="url(#2716456718800clip-0)">2.5</text></g><line x1="54" y1="240.22" x2="56" y2="240.22" style="stroke-width: 0.5;stroke: rgb(128,128,128);stroke-opacity: 1.0;shape-rendering:crispEdges;" transform="matrix(1,0,0,1,0,0)" clip-path="url(#2716456718800clip-0)"/><g transform="matrix(1,0,0,1,0,0)"><text x="33.27" y="223.82" style="fill: rgb(64,64,64); fill-opacity: 1.0; font-family: Tahoma; font-size: 12px; " clip-path="url(#2716456718800clip-0)">3.0</text></g><line x1="54" y1="219.06" x2="56" y2="219.06" style="stroke-width: 0.5;stroke: rgb(128,128,128);stroke-opacity: 1.0;shape-rendering:crispEdges;" transform="matrix(1,0,0,1,0,0)" clip-path="url(#2716456718800clip-0)"/><g transform="matrix(1,0,0,1,0,0)"><text x="33.27" y="202.67" style="fill: rgb(64,64,64); fill-opacity: 1.0; font-family: Tahoma; font-size: 12px; " clip-path="url(#2716456718800clip-0)">3.5</text></g><line x1="54" y1="197.9" x2="56" y2="197.9" style="stroke-width: 0.5;stroke: rgb(128,128,128);stroke-opacity: 1.0;shape-rendering:crispEdges;" transform="matrix(1,0,0,1,0,0)" clip-path="url(#2716456718800clip-0)"/><g transform="matrix(1,0,0,1,0,0)"><text x="33.27" y="181.51" style="fill: rgb(64,64,64); fill-opacity: 1.0; font-family: Tahoma; font-size: 12px; " clip-path="url(#2716456718800clip-0)">4.0</text></g><line x1="54" y1="176.75" x2="56" y2="176.75" style="stroke-width: 0.5;stroke: rgb(128,128,128);stroke-opacity: 1.0;shape-rendering:crispEdges;" transform="matrix(1,0,0,1,0,0)" clip-path="url(#2716456718800clip-0)"/><g transform="matrix(1,0,0,1,0,0)"><text x="33.27" y="160.36" style="fill: rgb(64,64,64); fill-opacity: 1.0; font-family: Tahoma; font-size: 12px; " clip-path="url(#2716456718800clip-0)">4.5</text></g><line x1="54" y1="155.59" x2="56" y2="155.59" style="stroke-width: 0.5;stroke: rgb(128,128,128);stroke-opacity: 1.0;shape-rendering:crispEdges;" transform="matrix(1,0,0,1,0,0)" clip-path="url(#2716456718800clip-0)"/><g transform="matrix(1,0,0,1,0,0)"><text x="33.27" y="139.2" style="fill: rgb(64,64,64); fill-opacity: 1.0; font-family: Tahoma; font-size: 12px; " clip-path="url(#2716456718800clip-0)">5.0</text></g><line x1="54" y1="134.44" x2="56" y2="134.44" style="stroke-width: 0.5;stroke: rgb(128,128,128);stroke-opacity: 1.0;shape-rendering:crispEdges;" transform="matrix(1,0,0,1,0,0)" clip-path="url(#2716456718800clip-0)"/><g transform="matrix(1,0,0,1,0,0)"><text x="33.27" y="118.04" style="fill: rgb(64,64,64); fill-opacity: 1.0; font-family: Tahoma; font-size: 12px; " clip-path="url(#2716456718800clip-0)">5.5</text></g><line x1="54" y1="113.28" x2="56" y2="113.28" style="stroke-width: 0.5;stroke: rgb(128,128,128);stroke-opacity: 1.0;shape-rendering:crispEdges;" transform="matrix(1,0,0,1,0,0)" clip-path="url(#2716456718800clip-0)"/><g transform="matrix(1,0,0,1,0,0)"><text x="33.27" y="96.89" style="fill: rgb(64,64,64); fill-opacity: 1.0; font-family: Tahoma; font-size: 12px; " clip-path="url(#2716456718800clip-0)">6.0</text></g><line x1="54" y1="92.12" x2="56" y2="92.12" style="stroke-width: 0.5;stroke: rgb(128,128,128);stroke-opacity: 1.0;shape-rendering:crispEdges;" transform="matrix(1,0,0,1,0,0)" clip-path="url(#2716456718800clip-0)"/><g transform="matrix(1,0,0,1,0,0)"><text x="33.27" y="75.73" style="fill: rgb(64,64,64); fill-opacity: 1.0; font-family: Tahoma; font-size: 12px; " clip-path="url(#2716456718800clip-0)">6.5</text></g><line x1="54" y1="70.97" x2="56" y2="70.97" style="stroke-width: 0.5;stroke: rgb(128,128,128);stroke-opacity: 1.0;shape-rendering:crispEdges;" transform="matrix(1,0,0,1,0,0)" clip-path="url(#2716456718800clip-0)"/><g transform="matrix(1,0,0,1,0,0)"><text x="33.27" y="54.57" style="fill: rgb(64,64,64); fill-opacity: 1.0; font-family: Tahoma; font-size: 12px; " clip-path="url(#2716456718800clip-0)">7.0</text></g><line x1="54" y1="49.81" x2="56" y2="49.81" style="stroke-width: 0.5;stroke: rgb(128,128,128);stroke-opacity: 1.0;shape-rendering:crispEdges;" transform="matrix(1,0,0,1,0,0)" clip-path="url(#2716456718800clip-0)"/><g transform="matrix(0,-1,1,0,-170.683594,210.316406)"><text x="-41.31" y="196.06" style="fill: rgb(64,64,64); fill-opacity: 1.0; font-family: Tahoma; font-size: 14px; font-weight: bold; " clip-path="url(#2716456718800clip-1)">Connection times</text></g><line x1="60" y1="346" x2="588" y2="346" style="stroke-width: 0.5;stroke: rgb(255,255,255);stroke-opacity: 1.0;stroke-dasharray: 2.0, 2.0;shape-rendering:crispEdges;" transform="matrix(1,0,0,1,0,0)" clip-path="url(#2716456718800clip-2)"/><line x1="60" y1="324.84" x2="588" y2="324.84" style="stroke-width: 0.5;stroke: rgb(255,255,255);stroke-opacity: 1.0;stroke-dasharray: 2.0, 2.0;shape-rendering:crispEdges;" transform="matrix(1,0,0,1,0,0)" clip-path="url(#2716456718800clip-2)"/><line x1="60" y1="303.69" x2="588" y2="303.69" style="stroke-width: 0.5;stroke: rgb(255,255,255);stroke-opacity: 1.0;stroke-dasharray: 2.0, 2.0;shape-rendering:crispEdges;" transform="matrix(1,0,0,1,0,0)" clip-path="url(#2716456718800clip-2)"/><line x1="60" y1="282.53" x2="588" y2="282.53" style="stroke-width: 0.5;stroke: rgb(255,255,255);stroke-opacity: 1.0;stroke-dasharray: 2.0, 2.0;shape-rendering:crispEdges;" transform="matrix(1,0,0,1,0,0)" clip-path="url(#2716456718800clip-2)"/><line x1="60" y1="261.37" x2="588" y2="261.37" style="stroke-width: 0.5;stroke: rgb(255,255,255);stroke-opacity: 1.0;stroke-dasharray: 2.0, 2.0;shape-rendering:crispEdges;" transform="matrix(1,0,0,1,0,0)" clip-path="url(#2716456718800clip-2)"/><line x1="60" y1="240.22" x2="588" y2="240.22" style="stroke-width: 0.5;stroke: rgb(255,255,255);stroke-opacity: 1.0;stroke-dasharray: 2.0, 2.0;shape-rendering:crispEdges;" transform="matrix(1,0,0,1,0,0)" clip-path="url(#2716456718800clip-2)"/><line x1="60" y1="219.06" x2="588" y2="219.06" style="stroke-width: 0.5;stroke: rgb(255,255,255);stroke-opacity: 1.0;stroke-dasharray: 2.0, 2.0;shape-rendering:crispEdges;" transform="matrix(1,0,0,1,0,0)" clip-path="url(#2716456718800clip-2)"/><line x1="60" y1="197.9" x2="588" y2="197.9" style="stroke-width: 0.5;stroke: rgb(255,255,255);stroke-opacity: 1.0;stroke-dasharray: 2.0, 2.0;shape-rendering:crispEdges;" transform="matrix(1,0,0,1,0,0)" clip-path="url(#2716456718800clip-2)"/><line x1="60" y1="176.75" x2="588" y2="176.75" style="stroke-width: 0.5;stroke: rgb(255,255,255);stroke-opacity: 1.0;stroke-dasharray: 2.0, 2.0;shape-rendering:crispEdges;" transform="matrix(1,0,0,1,0,0)" clip-path="url(#2716456718800clip-2)"/><line x1="60" y1="155.59" x2="588" y2="155.59" style="stroke-width: 0.5;stroke: rgb(255,255,255);stroke-opacity: 1.0;stroke-dasharray: 2.0, 2.0;shape-rendering:crispEdges;" transform="matrix(1,0,0,1,0,0)" clip-path="url(#2716456718800clip-2)"/><line x1="60" y1="134.44" x2="588" y2="134.44" style="stroke-width: 0.5;stroke: rgb(255,255,255);stroke-opacity: 1.0;stroke-dasharray: 2.0, 2.0;shape-rendering:crispEdges;" transform="matrix(1,0,0,1,0,0)" clip-path="url(#2716456718800clip-2)"/><line x1="60" y1="113.28" x2="588" y2="113.28" style="stroke-width: 0.5;stroke: rgb(255,255,255);stroke-opacity: 1.0;stroke-dasharray: 2.0, 2.0;shape-rendering:crispEdges;" transform="matrix(1,0,0,1,0,0)" clip-path="url(#2716456718800clip-2)"/><line x1="60" y1="92.12" x2="588" y2="92.12" style="stroke-width: 0.5;stroke: rgb(255,255,255);stroke-opacity: 1.0;stroke-dasharray: 2.0, 2.0;shape-rendering:crispEdges;" transform="matrix(1,0,0,1,0,0)" clip-path="url(#2716456718800clip-2)"/><line x1="60" y1="70.97" x2="588" y2="70.97" style="stroke-width: 0.5;stroke: rgb(255,255,255);stroke-opacity: 1.0;stroke-dasharray: 2.0, 2.0;shape-rendering:crispEdges;" transform="matrix(1,0,0,1,0,0)" clip-path="url(#2716456718800clip-2)"/><line x1="60" y1="49.81" x2="588" y2="49.81" style="stroke-width: 0.5;stroke: rgb(255,255,255);stroke-opacity: 1.0;stroke-dasharray: 2.0, 2.0;shape-rendering:crispEdges;" transform="matrix(1,0,0,1,0,0)" clip-path="url(#2716456718800clip-2)"/><rect x="86.4" y="49.81" width="9.6" height="296.19" style="fill: url(#2716456718800gp0); fill-opacity: 1.0" transform="matrix(1,0,0,1,0,0)" clip-path="url(#2716456718800clip-2)"/><rect x="96" y="49.81" width="9" height="296.19" style="fill: url(#2716456718800gp1); fill-opacity: 1.0" transform="matrix(1,0,0,1,0,0)" clip-path="url(#2716456718800clip-2)"/><rect x="105" y="49.81" width="55" height="296.19" style="fill: url(#2716456718800gp2); fill-opacity: 1.0" transform="matrix(1,0,0,1,0,0)" clip-path="url(#2716456718800clip-2)"/><rect x="160" y="49.81" width="18.8" height="296.19" style="fill: url(#2716456718800gp3); fill-opacity: 1.0" transform="matrix(1,0,0,1,0,0)" clip-path="url(#2716456718800clip-2)"/><rect x="214" y="261.37" width="9" height="84.63" style="fill: url(#2716456718800gp4); fill-opacity: 1.0" transform="matrix(1,0,0,1,0,0)" clip-path="url(#2716456718800clip-2)"/><rect x="223" y="261.37" width="9" height="84.63" style="fill: url(#2716456718800gp5); fill-opacity: 1.0" transform="matrix(1,0,0,1,0,0)" clip-path="url(#2716456718800clip-2)"/><rect x="232" y="261.37" width="56" height="84.63" style="fill: url(#2716456718800gp6); fill-opacity: 1.0" transform="matrix(1,0,0,1,0,0)" clip-path="url(#2716456718800clip-2)"/><rect x="288" y="261.37" width="18.4" height="84.63" style="fill: url(#2716456718800gp7); fill-opacity: 1.0" transform="matrix(1,0,0,1,0,0)" clip-path="url(#2716456718800clip-2)"/><rect x="341.6" y="176.75" width="9.4" height="169.25" style="fill: url(#2716456718800gp8); fill-opacity: 1.0" transform="matrix(1,0,0,1,0,0)" clip-path="url(#2716456718800clip-2)"/><rect x="351" y="176.75" width="9" height="169.25" style="fill: url(#2716456718800gp9); fill-opacity: 1.0" transform="matrix(1,0,0,1,0,0)" clip-path="url(#2716456718800clip-2)"/><rect x="360" y="176.75" width="56" height="169.25" style="fill: url(#2716456718800gp10); fill-opacity: 1.0" transform="matrix(1,0,0,1,0,0)" clip-path="url(#2716456718800clip-2)"/><rect x="416" y="176.75" width="18" height="169.25" style="fill: url(#2716456718800gp11); fill-opacity: 1.0" transform="matrix(1,0,0,1,0,0)" clip-path="url(#2716456718800clip-2)"/><rect x="469.2" y="303.69" width="8.8" height="42.31" style="fill: url(#2716456718800gp12); fill-opacity: 1.0" transform="matrix(1,0,0,1,0,0)" clip-path="url(#2716456718800clip-2)"/><rect x="478" y="303.69" width="10" height="42.31" style="fill: url(#2716456718800gp13); fill-opacity: 1.0" transform="matrix(1,0,0,1,0,0)" clip-path="url(#2716456718800clip-2)"/><rect x="488" y="303.69" width="55" height="42.31" style="fill: url(#2716456718800gp14); fill-opacity: 1.0" transform="matrix(1,0,0,1,0,0)" clip-path="url(#2716456718800clip-2)"/><rect x="543" y="303.69" width="18.6" height="42.31" style="fill: url(#2716456718800gp15); fill-opacity: 1.0" transform="matrix(1,0,0,1,0,0)" clip-path="url(#2716456718800clip-2)"/><rect x="60" y="35" width="528" height="311" style="stroke-width: 0.5;stroke: rgb(0,0,0);stroke-opacity: 1.0;shape-rendering:crispEdges;; fill: none" transform="matrix(1,0,0,1,0,0)" clip-path="url(#2716456718800clip-0)"/></svg>
